<?xml version="1.0" encoding="UTF-8"?>
<svg width="448px" height="448px" viewBox="0 0 448 448" version="1.1" xmlns="http://www.w3.org/2000/svg" xmlns:xlink="http://www.w3.org/1999/xlink">
    <!-- Generator: Sketch 53.2 (72643) - https://sketchapp.com -->
    <title>Tablet</title>
    <desc>Created with Sketch.</desc>
    <defs>
        <polygon id="path-1" points="0 153.213277 44.5123418 49.3665386 152.153941 0.98283675 153.128962 1.93619627 107.271924 106.890627 0.546980477 153.782012"></polygon>
    </defs>
    <g id="Tablet" stroke="none" stroke-width="1" fill="none" fill-rule="evenodd">
        <circle id="Oval" stroke="#000000" stroke-width="3" cx="224" cy="224" r="222"></circle>
        <circle id="Oval" stroke="#000000" stroke-width="3" cx="226" cy="226" r="184"></circle>
        <g id="Group" transform="translate(147.728310, 148.328531)">
            <mask id="mask-2" fill="white">
                <use xlink:href="#path-1"></use>
            </mask>
            <use id="r" fill="#A4A4A4" xlink:href="#path-1"></use>
            <rect id="Rectangle" fill="#D8D8D8" mask="url(#mask-2)" transform="translate(118.179276, 29.000000) rotate(42.000000) translate(-118.179276, -29.000000) " x="69.179276" y="-36" width="98" height="130"></rect>
        </g>
        <path d="M191.5,197.5 L254.5,255.5" id="Path-10" stroke="#FFFFFF"></path>
        <g id="Group-2" transform="translate(66.000000, 68.000000)" fill="#272D34">
            <rect id="Rectangle" x="150" y="0" width="16" height="28"></rect>
            <rect id="Rectangle" x="150" y="287" width="16" height="28"></rect>
            <rect id="Rectangle" transform="translate(55.479936, 55.628024) rotate(-44.000000) translate(-55.479936, -55.628024) " x="47.4799356" y="41.6280242" width="16" height="28"></rect>
            <rect id="Rectangle" transform="translate(55.757072, 259.312987) rotate(-134.000000) translate(-55.757072, -259.312987) " x="47.7570724" y="245.312987" width="16" height="28"></rect>
            <rect id="Rectangle" transform="translate(260.628024, 55.479936) rotate(-134.000000) translate(-260.628024, -55.479936) " x="252.628024" y="41.4799356" width="16" height="28"></rect>
            <rect id="Rectangle" transform="translate(260.479936, 258.628024) rotate(-44.000000) translate(-260.479936, -258.628024) " x="252.479936" y="244.628024" width="16" height="28"></rect>
            <rect id="Rectangle" transform="translate(14.000000, 157.000000) rotate(-90.000000) translate(-14.000000, -157.000000) " x="6" y="143" width="16" height="28"></rect>
            <rect id="Rectangle" transform="translate(304.000000, 157.000000) rotate(-90.000000) translate(-304.000000, -157.000000) " x="296" y="143" width="16" height="28"></rect>
        </g>
    </g>
</svg>