<?xml version="1.0" encoding="UTF-8"?>
<svg width="27px" height="29px" viewBox="0 0 27 29" version="1.1" xmlns="http://www.w3.org/2000/svg" xmlns:xlink="http://www.w3.org/1999/xlink">
    <!-- Generator: Sketch 54.1 (76490) - https://sketchapp.com -->
    <title>Group</title>
    <desc>Created with Sketch.</desc>
    <g id="Univents" stroke="none" stroke-width="1" fill="none" fill-rule="evenodd">
        <g id="Home-Page-2.0" transform="translate(-33.000000, -413.000000)">
            <g id="Group" transform="translate(34.000000, 414.000000)">
                <g id="Bars" transform="translate(0.000000, 5.000000)">
                    <polygon id="Path" fill="#D5EEF4" points="5.09326954 0.5 2.54663477 8.19917549 10.819491 7.68881504 12.5779458 2.45329567 5.34529553 1.13686838e-13"></polygon>
                    <path d="M11,8.62431296 L8.02961039,14.3133342 C8.0766789,14.8830005 7.38714132,15.0268226 5.96099765,14.7448006 C4.53485397,14.4627787 3.38118809,14.0933661 2.5,13.6365628 C1.21334668,12.9805775 0.667388377,12.2492034 0.862125089,11.4424404 C1.0568618,10.6356774 1.46995713,9.59224941 2.10141108,8.31215648 L11,8 L11,8.62431296 Z" id="Path-15" fill="#CB4C47"></path>
                    <polygon id="Path-11" fill="#000000" fill-rule="nonzero" points="-0.153236843 21.3339534 4.94003269 22.9738182 5.24650638 22.0219391 0.153236843 20.3820743"></polygon>
                    <polygon id="Path-12" fill="#000000" fill-rule="nonzero" points="3.01986851 21.4989161 5.56650327 14.0320233 4.6200358 13.7092241 2.07340103 21.1761169"></polygon>
                    <path d="M1.33844244,10.4897224 C1.82785155,9.21387113 3.00686653,5.66059508 4.86913252,-0.152541099 L5.02428819,-0.636865615 L13.2000669,2.1363367 L13.0554111,2.60171006 L9.80426602,13.0553818 C9.14594893,14.6890267 7.60727487,15.172942 5.39596303,14.5473756 L5.29524352,14.5066134 C5.20403891,14.4575633 4.97294118,14.3685359 4.62345432,14.2514789 C1.91294487,13.3934906 0.708068161,12.1330588 1.33844244,10.4897224 Z M2.27210714,10.8478707 C1.91430993,11.78062 2.68988431,12.5912302 4.92893762,13.2992717 L4.9368761,13.3018552 C5.29823934,13.4227995 5.55234575,13.518696 5.71470771,13.5981633 C7.4550024,14.0800583 8.44146714,13.7618126 8.8630395,12.7200835 L11.9558247,2.77025464 L5.66621653,0.63683633 C3.8866428,6.18492254 2.75721846,9.58322346 2.27210714,10.8478707 Z" id="Path-13" fill="#000000" fill-rule="nonzero"></path>
                    <polygon id="Path-14" fill="#000000" fill-rule="nonzero" points="2.53606482 8.99869763 10.8555558 8.39704862 10.7834261 7.39965335 2.46393518 8.00130237"></polygon>
                </g>
                <g id="Bars" transform="translate(19.813278, 15.357339) scale(-1, 1) translate(-19.813278, -15.357339) translate(13.813278, 3.857339)">
                    <path d="M10.1218693,9.56732237 L7.64916077,14.4171169 C7.55751056,14.9782446 6.91814317,15.1289861 5.7310586,14.8693415 C4.54397404,14.6096968 3.62802135,14.3574742 2.98320055,14.1126735 C1.59719133,13.389497 0.985233589,12.6565339 1.14732732,11.9137843 C1.30942105,11.1710348 1.63554461,10.3233321 2.12569801,9.37067625 L10.1218693,8.99254615 L10.1218693,9.56732237 Z" id="Path-15" fill="#CB4C47"></path>
                    <polygon id="Path" fill="#D5EEF4" points="4.36334338 1.42188845 2.07852608 8.93403452 9.50085659 8.43607181 11.0785261 3.32773439 4.58945878 0.934034519"></polygon>
                    <polygon id="Path-11" fill="#000000" fill-rule="nonzero" points="-0.112536677 21.0102274 4.88746332 23.0102274 5.258854 22.0817507 0.258853999 20.0817507"></polygon>
                    <polygon id="Path-12" fill="#000000" fill-rule="nonzero" points="3.11619716 21.526634 5.11619716 14.526634 4.15467321 14.2519129 2.15467321 21.2519129"></polygon>
                    <path d="M1.09061574,11.2385227 C1.53986744,9.99035484 2.62195336,6.51478 4.33114551,0.828674107 L4.48320362,0.322810264 L12.0592938,3.06156306 L11.9278617,3.51219569 L8.94433202,13.736238 C8.33591296,15.3453291 6.89214783,15.8292502 4.83706466,15.2096549 L4.73275808,15.1647361 C4.65265098,15.1188216 4.44307744,15.0327721 4.12566541,14.9194555 C1.62623491,14.0761494 0.515169999,12.8372987 1.09061574,11.2385227 Z M2.03152446,11.5771829 C1.70009623,12.4979987 2.40643487,13.2847851 4.44918792,13.9732241 C4.78779236,14.0939207 5.0214822,14.1877299 5.17362055,14.2664931 C6.74161996,14.7280226 7.61416156,14.4267423 7.99664722,13.4194027 L10.8364282,3.68283303 L5.13666728,1.62237231 C3.50908143,7.02976996 2.475777,10.3429044 2.03152446,11.5771829 Z" id="Path-13" fill="#000000" fill-rule="nonzero"></path>
                    <polygon id="Path-14" fill="#000000" fill-rule="nonzero" points="1.99110342 9.47827342 10.1010872 9.534872 10.1080659 8.53489635 1.99808213 8.47829777"></polygon>
                </g>
                <g id="Group-2" transform="translate(7.887243, 0.000000)" fill="#464646" fill-rule="nonzero">
                    <path d="M6.11275655,3.5 L6.11275655,0.310962854 C6.11275655,0.0348204791 5.88889892,-0.189037146 5.61275655,-0.189037146 C5.33661417,-0.189037146 5.11275655,0.0348204791 5.11275655,0.310962854 L5.11275655,3.5 C5.11275655,3.77614237 5.33661417,4 5.61275655,4 C5.88889892,4 6.11275655,3.77614237 6.11275655,3.5 Z" id="Line-17"></path>
                    <path d="M9.21698712,4.05541806 L9.54172201,1.50306365 C9.57657452,1.22912951 9.38276057,0.978808463 9.10882643,0.943955948 C8.83489229,0.909103432 8.58457125,1.10291738 8.54971873,1.37685152 L8.22498385,3.92920594 C8.19013133,4.20314008 8.38394528,4.45346112 8.65787942,4.48831364 C8.93181356,4.52316615 9.18213461,4.3293522 9.21698712,4.05541806 Z" id="Line-17" transform="translate(8.883353, 2.716135) rotate(31.000000) translate(-8.883353, -2.716135) "></path>
                    <path d="M1.99600164,4.05541806 L2.32073652,1.50306365 C2.35558904,1.22912951 2.16177509,0.978808463 1.88784095,0.943955948 C1.61390681,0.909103432 1.36358576,1.10291738 1.32873325,1.37685152 L1.00399836,3.92920594 C0.969145846,4.20314008 1.1629598,4.45346112 1.43689394,4.48831364 C1.71082808,4.52316615 1.96114912,4.3293522 1.99600164,4.05541806 Z" id="Line-17" transform="translate(1.662367, 2.716135) scale(-1, 1) rotate(31.000000) translate(-1.662367, -2.716135) "></path>
                </g>
            </g>
        </g>
    </g>
</svg>