<?xml version="1.0" encoding="UTF-8"?>
<svg width="31px" height="30px" viewBox="0 0 31 30" version="1.1" xmlns="http://www.w3.org/2000/svg" xmlns:xlink="http://www.w3.org/1999/xlink">
    <!-- Generator: Sketch 54.1 (76490) - https://sketchapp.com -->
    <title>Calendar</title>
    <desc>Created with Sketch.</desc>
    <g id="Univents" stroke="none" stroke-width="1" fill="none" fill-rule="evenodd">
        <g id="Explore-Events-Expanded-Copy-7" transform="translate(-47.000000, -621.000000)" fill="#D8D8D8">
            <g id="Tabs" transform="translate(47.000000, 604.000000)">
                <g id="Calendar" transform="translate(0.000000, 17.000000)">
                    <path d="M28,19.3414114 C27.3744421,19.1203084 26.7012708,19 26,19 L26,11 L2,11 L2,24 L20.0829584,24 C20.0283988,24.3252085 20,24.6592878 20,25 C20,25.7012708 20.1203084,26.3744421 20.3414114,27 L2,27 C0.8954305,27 1.3527075e-16,26.1045695 0,25 L0,5 C-1.3527075e-16,3.8954305 0.8954305,3 2,3 L26,3 C27.1045695,3 28,3.8954305 28,5 L28,19.3414114 Z" id="Combined-Shape"></path>
                    <path d="M26.5,30 C24.0147186,30 22,27.9852814 22,25.5 C22,23.0147186 24.0147186,21 26.5,21 C28.9852814,21 31,23.0147186 31,25.5 C31,27.9852814 28.9852814,30 26.5,30 Z M25.0014143,24.7071745 L24,25.6293678 L25.8641418,27.5 L29,24.3839275 L28.11046,23.5 L25.9675716,25.6293678 L25.0014143,24.7071745 Z" id="Combined-Shape"></path>
                    <g id="Group-4" transform="translate(4.000000, 12.000000)">
                        <rect id="Rectangle" x="5" y="0" width="3" height="3" rx="0.5"></rect>
                        <rect id="Rectangle" x="0" y="4" width="3" height="3" rx="0.5"></rect>
                        <rect id="Rectangle" x="5" y="8" width="3" height="3" rx="0.5"></rect>
                        <rect id="Rectangle" x="10" y="0" width="3" height="3" rx="0.5"></rect>
                        <rect id="Rectangle" x="10" y="4" width="3" height="3" rx="0.5"></rect>
                        <rect id="Rectangle" x="10" y="8" width="3" height="3" rx="0.5"></rect>
                        <rect id="Rectangle" x="15" y="0" width="3" height="3" rx="0.5"></rect>
                        <rect id="Rectangle" x="15" y="4" width="3" height="3" rx="0.5"></rect>
                        <rect id="Rectangle" x="0" y="8" width="3" height="3" rx="0.5"></rect>
                        <rect id="Rectangle" x="5" y="4" width="3" height="3" rx="0.5"></rect>
                    </g>
                    <path d="M7,0 L9,0 C9.55228475,-1.01453063e-16 10,0.44771525 10,1 L10,3 L6,3 L6,1 C6,0.44771525 6.44771525,1.01453063e-16 7,0 Z" id="Rectangle"></path>
                    <path d="M20,0 L22,0 C22.5522847,-1.01453063e-16 23,0.44771525 23,1 L23,3 L19,3 L19,1 C19,0.44771525 19.4477153,1.01453063e-16 20,0 Z" id="Rectangle"></path>
                </g>
            </g>
        </g>
    </g>
</svg>