<?xml version="1.0" encoding="UTF-8"?>
<svg width="31px" height="30px" viewBox="0 0 31 30" version="1.1" xmlns="http://www.w3.org/2000/svg" xmlns:xlink="http://www.w3.org/1999/xlink">
    <!-- Generator: Sketch 54.1 (76490) - https://sketchapp.com -->
    <title>Calendar</title>
    <desc>Created with Sketch.</desc>
    <g id="Univents" stroke="none" stroke-width="1" fill="none" fill-rule="evenodd">
        <g id="Explore-Events-Expanded-Copy-7" transform="translate(-49.000000, -619.000000)" fill="#D8D8D8">
            <g id="Tabs" transform="translate(49.000000, 604.000000)">
                <g id="Calendar" transform="translate(0.000000, 15.000000)">
                    <g>
                        <path d="M28,19.3414114 C27.3744421,19.1203084 26.7012708,19 26,19 L26,11 L2,11 L2,24 L20.0829584,24 C20.0283988,24.3252085 20,24.6592878 20,25 C20,25.7012708 20.1203084,26.3744421 20.3414114,27 L2,27 C0.8954305,27 1.3527075e-16,26.1045695 0,25 L0,5 C-1.3527075e-16,3.8954305 0.8954305,3 2,3 L26,3 C27.1045695,3 28,3.8954305 28,5 L28,19.3414114 Z" id="Combined-Shape"></path>
                        <g id="Combined-Shape" transform="translate(22.000000, 21.000000)">
                            <path d="M4.5,9 C2.01471863,9 0,6.98528137 0,4.5 C0,2.01471863 2.01471863,0 4.5,0 C6.98528137,0 9,2.01471863 9,4.5 C9,6.98528137 6.98528137,9 4.5,9 Z M3.00141426,3.70717452 L2,4.62936783 L3.86414178,6.5 L7,3.38392748 L6.11045997,2.5 L3.96757159,4.62936783 L3.00141426,3.70717452 Z"></path>
                        </g>
                        <g id="Group-4" transform="translate(4.000000, 12.000000)">
                            <g id="Rectangle">
                                <rect x="5" y="0" width="3" height="3" rx="0.5"></rect>
                                <rect x="0" y="4" width="3" height="3" rx="0.5"></rect>
                                <rect x="5" y="8" width="3" height="3" rx="0.5"></rect>
                                <rect x="10" y="0" width="3" height="3" rx="0.5"></rect>
                                <rect x="10" y="4" width="3" height="3" rx="0.5"></rect>
                                <rect x="10" y="8" width="3" height="3" rx="0.5"></rect>
                                <rect x="15" y="0" width="3" height="3" rx="0.5"></rect>
                                <rect x="15" y="4" width="3" height="3" rx="0.5"></rect>
                                <rect x="0" y="8" width="3" height="3" rx="0.5"></rect>
                                <rect x="5" y="4" width="3" height="3" rx="0.5"></rect>
                            </g>
                        </g>
                        <g id="Rectangle" transform="translate(6.000000, 0.000000)">
                            <path d="M1,0 L3,0 C3.55228475,-1.01453063e-16 4,0.44771525 4,1 L4,3 L0,3 L0,1 C-6.76353751e-17,0.44771525 0.44771525,1.01453063e-16 1,0 Z"></path>
                            <path d="M14,0 L16,0 C16.5522847,-1.01453063e-16 17,0.44771525 17,1 L17,3 L13,3 L13,1 C13,0.44771525 13.4477153,1.01453063e-16 14,0 Z"></path>
                        </g>
                    </g>
                </g>
            </g>
        </g>
    </g>
</svg>