<?xml version="1.0" encoding="UTF-8"?>
<svg width="42px" height="42px" viewBox="0 0 42 42" version="1.1" xmlns="http://www.w3.org/2000/svg" xmlns:xlink="http://www.w3.org/1999/xlink">
    <!-- Generator: Sketch 54.1 (76490) - https://sketchapp.com -->
    <title>Group 4</title>
    <desc>Created with Sketch.</desc>
    <g id="Univents" stroke="none" stroke-width="1" fill="none" fill-rule="evenodd">
        <g id="Explore-Events-Expanded-Copy-7" transform="translate(-271.000000, -572.000000)" fill="#000000" fill-rule="nonzero">
            <g id="Group-4" transform="translate(273.000000, 574.000000)">
                <g id="Group-3" transform="translate(9.000000, 10.000000)">
                    <path d="M12.6431866,12.7176889 L2.17041158,18.3611366 C1.8927293,18.5107708 1.55888381,18.5128185 1.27938691,18.3666018 C0.814489853,18.1233943 0.634774928,17.5493622 0.877982392,17.0844651 L6.56999034,6.2040517 L17.255236,0.853693141 C17.5359146,0.713150664 17.867898,0.720327867 18.1422403,0.872869431 C18.6007932,1.12783691 18.7658317,1.70625944 18.5108642,2.1648123 L12.6431866,12.7176889 Z M2.55946479,16.674755 L11.6917801,11.7536387 L16.8239817,2.52349782 L7.52733294,7.17855264 L2.55946479,16.674755 Z" id="Path-24"></path>
                    <polygon id="Path" points="6.78300669 7.31726534 11.8057513 12.5808448 12.5292154 11.8904828 7.50647078 6.62690332"></polygon>
                </g>
                <g id="Group-3" transform="translate(10.000000, 10.000000)">
                    <path d="M12.6306739,12.8275766 L1.49016904,18.8781043 C1.19478211,19.0385321 0.839651079,19.0407275 0.542333845,18.8839636 C0.0477955836,18.6232128 -0.14337772,18.0077739 0.115336321,17.5093424 L6.17025893,5.84408988 L17.5367813,0.107792807 C17.8353555,-0.0428874498 18.1885058,-0.0351925317 18.4803398,0.128352344 C18.9681293,0.401711448 19.1436905,1.02185745 18.8724667,1.5134872 L12.6306739,12.8275766 Z M1.90402775,17.0700785 L11.618607,11.7939863 L17.0780308,1.89804585 L7.18864039,6.88888469 L1.90402775,17.0700785 Z" id="Path-24"></path>
                    <polygon id="Path" points="6 6.69570253 11.2445829 12 12 11.3042975 6.75541713 6"></polygon>
                </g>
                <path d="M19,39.5 C30.3218374,39.5 39.5,30.3218374 39.5,19 C39.5,7.67816263 30.3218374,-1.5 19,-1.5 C7.67816263,-1.5 -1.5,7.67816263 -1.5,19 C-1.5,30.3218374 7.67816263,39.5 19,39.5 Z M19,36.5 C9.33501688,36.5 1.5,28.6649831 1.5,19 C1.5,9.33501688 9.33501688,1.5 19,1.5 C28.6649831,1.5 36.5,9.33501688 36.5,19 C36.5,28.6649831 28.6649831,36.5 19,36.5 Z" id="Oval"></path>
            </g>
        </g>
    </g>
</svg>