<?xml version="1.0" encoding="UTF-8"?>
<svg width="36px" height="36px" viewBox="0 0 36 36" version="1.1" xmlns="http://www.w3.org/2000/svg" xmlns:xlink="http://www.w3.org/1999/xlink">
    <!-- Generator: Sketch 54.1 (76490) - https://sketchapp.com -->
    <title>Group 2</title>
    <desc>Created with Sketch.</desc>
    <g id="Univents" stroke="none" stroke-width="1" fill="none" fill-rule="evenodd">
        <g id="Explore-Events-Expanded-Copy-7" transform="translate(-209.000000, -617.000000)" fill="#000000" fill-rule="nonzero">
            <g id="Tabs" transform="translate(0.000000, 601.000000)">
                <g id="Explore" transform="translate(169.000000, 16.000000)">
                    <g id="Group-2" transform="translate(40.427580, 1.000000)">
                        <path d="M17.5724205,34.65 C27.3202463,34.65 35.2224205,26.7478258 35.2224205,17 C35.2224205,7.25217417 27.3202463,-0.65 17.5724205,-0.65 C7.82459464,-0.65 -0.0775795216,7.25217417 -0.0775795216,17 C-0.0775795216,26.7478258 7.82459464,34.65 17.5724205,34.65 Z M17.5724205,33.35 C8.54256482,33.35 1.22242048,26.0298557 1.22242048,17 C1.22242048,7.97014434 8.54256482,0.65 17.5724205,0.65 C26.6022761,0.65 33.9224205,7.97014434 33.9224205,17 C33.9224205,26.0298557 26.6022761,33.35 17.5724205,33.35 Z" id="Oval"></path>
                        <g id="Group-3" transform="translate(9.000000, 8.000000)">
                            <path d="M11.6431866,11.7176889 L17.5108642,1.1648123 C17.7658317,0.70625944 17.6007932,0.127836913 17.1422403,-0.127130569 C16.867898,-0.279672133 16.5359146,-0.286849336 16.255236,-0.146306859 L5.56999034,5.2040517 L-0.122017608,16.0844651 C-0.365225072,16.5493622 -0.185510147,17.1233943 0.279386912,17.3666018 C0.558883805,17.5128185 0.892729302,17.5107708 1.17041158,17.3611366 L11.6431866,11.7176889 Z M1.55946479,15.674755 L6.52733294,6.17855264 L15.8239817,1.52349782 L10.6917801,10.7536387 L1.55946479,15.674755 Z" id="Path-24"></path>
                            <polygon id="Path" points="5.78300669 6.31726534 10.8057513 11.5808448 11.5292154 10.8904828 6.50647078 5.62690332"></polygon>
                        </g>
                    </g>
                </g>
            </g>
        </g>
    </g>
</svg>