<?xml version="1.0" encoding="UTF-8"?>
<svg width="37px" height="32px" viewBox="0 0 37 32" version="1.1" xmlns="http://www.w3.org/2000/svg" xmlns:xlink="http://www.w3.org/1999/xlink">
    <!-- Generator: Sketch 54.1 (76490) - https://sketchapp.com -->
    <title>Shirt</title>
    <desc>Created with Sketch.</desc>
    <g id="Univents" stroke="none" stroke-width="1" fill="none" fill-rule="evenodd">
        <g id="Home-Page-2.0" transform="translate(-204.000000, -471.000000)">
            <g id="Shirt" transform="translate(205.000000, 472.000000)">
                <path d="M8.37343657,30.0865337 L27.8714009,30.0865337 L27.8714009,11.0278535 L31.9177508,13.6842887 L35.3912216,6.58729953 L27.8714009,0.589281231 L22.313613,0.589281231 C21.1774079,2.12631529 20.2739031,2.99292797 19.6030985,3.18911926 C17.2985344,3.86313884 15.1774574,2.54241767 13.1413855,0 C10.2297159,0 8.64039954,0.333333333 8.37343657,1 L1,6.01211699 L4.76933223,13.6842887 L8.37343657,11.0278535 L8.37343657,30.0865337 Z" id="Path-23" fill="#595B93"></path>
                <path d="M27.3714009,10.9542252 L31.1175037,13.4135477 L35.0167521,5.44661059 L27.5596744,-0.5 L21.5016905,-0.5 L21.3515764,-0.305054268 C18.7382514,3.08874193 16.2555514,3.08874193 13.5316598,-0.312547579 L13.3815403,-0.5 L7.21958768,-0.5 L-0.640283782,4.84277265 L3.58438481,13.4417448 L6.87343657,11.0175218 L6.87343657,29.5865337 L27.3714009,29.5865337 L27.3714009,10.9542252 Z M7.87343657,28.5865337 L7.87343657,9.0381853 L3.95427964,11.9268326 L0.640283782,5.18146132 L7.52728546,0.5 L12.9038145,0.5 C15.930277,4.15134709 19.0713463,4.15360445 21.9909931,0.5 L27.2097689,0.5 L33.7656911,5.72798847 L30.7179979,11.9550297 L26.3714009,9.10148187 L26.3714009,28.5865337 L7.87343657,28.5865337 Z" id="Path-23" fill="#000000" fill-rule="nonzero"></path>
                <path d="M17,3.18230285 L17,9.31558464 C17,9.59172702 17.2238576,9.81558464 17.5,9.81558464 C17.7761424,9.81558464 18,9.59172702 18,9.31558464 L18,3.18230285 C18,2.90616047 17.7761424,2.68230285 17.5,2.68230285 C17.2238576,2.68230285 17,2.90616047 17,3.18230285 Z" id="Path-3" fill="#000000" fill-rule="nonzero"></path>
                <circle id="Oval" fill="#000000" cx="15.5" cy="4.5" r="1"></circle>
                <circle id="Oval" fill="#000000" cx="15.5" cy="6.5" r="1"></circle>
                <circle id="Oval" fill="#000000" cx="15.5" cy="8.5" r="1"></circle>
            </g>
        </g>
    </g>
</svg>