<?xml version="1.0" encoding="UTF-8"?>
<svg width="28px" height="30px" viewBox="0 0 28 30" version="1.1" xmlns="http://www.w3.org/2000/svg" xmlns:xlink="http://www.w3.org/1999/xlink">
    <!-- Generator: Sketch 54.1 (76490) - https://sketchapp.com -->
    <title>Food</title>
    <desc>Created with Sketch.</desc>
    <g id="Univents" stroke="none" stroke-width="1" fill="none" fill-rule="evenodd">
        <g id="Home-Page-2.0" transform="translate(-35.000000, -475.000000)">
            <g id="Food" transform="translate(48.945390, 489.734594) rotate(41.000000) translate(-48.945390, -489.734594) translate(39.945390, 472.734594)">
                <rect id="Rectangle" fill="#FFCE7C" x="1" y="6" width="4" height="24" rx="2"></rect>
                <rect id="Rectangle" fill="#FFCE7C" x="14" y="6" width="4" height="24" rx="2"></rect>
                <path d="M3.40134945,5.41076861 L3.90134945,5.41076861 C5.00591895,5.41076861 5.90134945,6.30619911 5.90134945,7.41076861 L5.90134945,28.4107686 C5.90134945,29.5153381 5.00591895,30.4107686 3.90134945,30.4107686 L3.40134945,30.4107686 C2.02063757,30.4107686 0.901349449,29.2914805 0.901349449,27.9107686 L0.901349449,7.91076861 C0.901349449,6.53005673 2.02063757,5.41076861 3.40134945,5.41076861 Z M3.40134945,6.41076861 C2.57292232,6.41076861 1.90134945,7.08234148 1.90134945,7.91076861 L1.90134945,27.9107686 C1.90134945,28.7391957 2.57292232,29.4107686 3.40134945,29.4107686 L3.90134945,29.4107686 C4.4536342,29.4107686 4.90134945,28.9630534 4.90134945,28.4107686 L4.90134945,7.41076861 C4.90134945,6.85848386 4.4536342,6.41076861 3.90134945,6.41076861 L3.40134945,6.41076861 Z" id="Rectangle" fill="#000000" fill-rule="nonzero"></path>
                <path d="M15.5,5 L16,5 C17.1045695,5 18,5.8954305 18,7 L18,28 C18,29.1045695 17.1045695,30 16,30 L15.5,30 C14.1192881,30 13,28.8807119 13,27.5 L13,7.5 C13,6.11928813 14.1192881,5 15.5,5 Z M15.5,6 C14.6715729,6 14,6.67157288 14,7.5 L14,27.5 C14,28.3284271 14.6715729,29 15.5,29 L16,29 C16.5522847,29 17,28.5522847 17,28 L17,7 C17,6.44771525 16.5522847,6 16,6 L15.5,6 Z" id="Rectangle" fill="#000000" fill-rule="nonzero" transform="translate(15.500000, 17.500000) scale(-1, 1) translate(-15.500000, -17.500000) "></path>
                <path d="M7.74935204,0.75470958 L11.7108176,0.75470958 C13.3461319,0.75470958 14.6801871,2.06441448 14.7103087,3.69945132 L15.199912,30.2757667 C15.2304303,31.9323399 13.9122524,33.2999977 12.2556793,33.330516 C12.2480583,33.3306564 12.2404368,33.3307678 12.232815,33.3308501 L8.59694717,33.3701125 C6.96336246,33.387753 5.61597343,32.0950447 5.56595936,30.4621305 L4.75075823,3.84655268 C4.70003469,2.19047504 6.00143131,0.80683931 7.65750895,0.756115769 C7.68811434,0.755178365 7.71873229,0.75470958 7.74935204,0.75470958 Z" id="Rectangle" fill="#F58772"></path>
                <path d="M8,0 L11,0 C13.209139,-4.05812251e-16 15,1.790861 15,4 L15,29 C15,31.209139 13.209139,33 11,33 L8,33 C5.790861,33 4,31.209139 4,29 L4,4 C4,1.790861 5.790861,4.05812251e-16 8,0 Z M8,1 C6.34314575,1 5,2.34314575 5,4 L5,29 C5,30.6568542 6.34314575,32 8,32 L11,32 C12.6568542,32 14,30.6568542 14,29 L14,4 C14,2.34314575 12.6568542,1 11,1 L8,1 Z" id="Rectangle" fill="#000000" fill-rule="nonzero"></path>
                <path d="M4.19931441,22.6678061 C5.29729393,20.1827861 6.42760019,18.7079754 7.53777571,18.2301814 C8.41244198,17.8537451 8.6057411,17.7683134 8.93124675,17.6063326 C9.79627992,17.1758677 10.3316414,16.7416317 10.8510118,16.0081923 C10.9902525,15.8115608 11.1288995,15.5917857 11.2720252,15.3415589 C11.5521054,14.8518944 11.7206968,14.4120598 11.9827384,13.5799595 C12.5536426,11.767081 12.9007847,11.0483316 13.928796,10.0041467 C14.1225283,9.80736652 14.1200574,9.49079367 13.9232772,9.29706145 C13.726497,9.10332923 13.4099242,9.10580009 13.216192,9.30258027 C12.0490714,10.488063 11.6436972,11.3273808 11.0289167,13.2795859 C10.7872256,14.0470644 10.6385109,14.4350431 10.4039898,14.8450566 C10.2761134,15.068623 10.1544693,15.261446 10.034909,15.4302855 C9.61678453,16.0207485 9.21016862,16.3505579 8.48573274,16.7110576 C8.18419811,16.8611097 7.99556451,16.9444795 7.14245571,17.3116379 C5.74384553,17.9135676 4.47538633,19.5686386 3.28462065,22.2636585 C3.17301836,22.5162442 3.287308,22.8114769 3.5398937,22.9230792 C3.79247941,23.0346815 4.08771212,22.9203919 4.19931441,22.6678061 Z" id="Path-21" fill="#E7CA1D" fill-rule="nonzero" transform="translate(8.657168, 16.059611) rotate(-34.000000) translate(-8.657168, -16.059611) "></path>
            </g>
        </g>
    </g>
</svg>