<?xml version="1.0" encoding="UTF-8"?>
<svg width="33px" height="9px" viewBox="0 0 33 9" version="1.1" xmlns="http://www.w3.org/2000/svg" xmlns:xlink="http://www.w3.org/1999/xlink">
    <!-- Generator: Sketch 54.1 (76490) - https://sketchapp.com -->
    <title>More</title>
    <desc>Created with Sketch.</desc>
    <g id="Univents" stroke="none" stroke-width="1" fill="none" fill-rule="evenodd">
        <g id="Home-Page-2.0" transform="translate(-294.000000, -487.000000)">
            <g id="More" transform="translate(295.000000, 488.000000)">
                <g id="Group-4">
                    <path d="M4,7.73316731 C5.93299662,7.73316731 7.56248758,6.31932455 7.56248758,4.38632792 C7.56248758,2.4533313 5.93299662,0.738805098 4,0.738805098 C2.06700338,0.738805098 0.658131993,2.29388069 0.658131993,4.22687732 C0.658131993,6.15987394 2.06700338,7.73316731 4,7.73316731 Z" id="Oval" fill="#92C841"></path>
                    <path d="M3.5,7.5 C5.709139,7.5 7.5,5.709139 7.5,3.5 C7.5,1.290861 5.709139,-0.5 3.5,-0.5 C1.290861,-0.5 -0.5,1.290861 -0.5,3.5 C-0.5,5.709139 1.290861,7.5 3.5,7.5 Z M3.5,6.5 C1.84314575,6.5 0.5,5.15685425 0.5,3.5 C0.5,1.84314575 1.84314575,0.5 3.5,0.5 C5.15685425,0.5 6.5,1.84314575 6.5,3.5 C6.5,5.15685425 5.15685425,6.5 3.5,6.5 Z" id="Oval" fill="#000000" fill-rule="nonzero"></path>
                </g>
                <g id="Group-4" transform="translate(12.000000, 0.000000)">
                    <path d="M4,7.73316731 C5.93299662,7.73316731 7.56248758,6.31932455 7.56248758,4.38632792 C7.56248758,2.4533313 5.93299662,0.738805098 4,0.738805098 C2.06700338,0.738805098 0.658131993,2.29388069 0.658131993,4.22687732 C0.658131993,6.15987394 2.06700338,7.73316731 4,7.73316731 Z" id="Oval" fill="#92C841"></path>
                    <path d="M3.5,7.5 C5.709139,7.5 7.5,5.709139 7.5,3.5 C7.5,1.290861 5.709139,-0.5 3.5,-0.5 C1.290861,-0.5 -0.5,1.290861 -0.5,3.5 C-0.5,5.709139 1.290861,7.5 3.5,7.5 Z M3.5,6.5 C1.84314575,6.5 0.5,5.15685425 0.5,3.5 C0.5,1.84314575 1.84314575,0.5 3.5,0.5 C5.15685425,0.5 6.5,1.84314575 6.5,3.5 C6.5,5.15685425 5.15685425,6.5 3.5,6.5 Z" id="Oval" fill="#000000" fill-rule="nonzero"></path>
                </g>
                <g id="Group-4" transform="translate(24.000000, 0.000000)">
                    <path d="M4,7.73316731 C5.93299662,7.73316731 7.56248758,6.31932455 7.56248758,4.38632792 C7.56248758,2.4533313 5.93299662,0.738805098 4,0.738805098 C2.06700338,0.738805098 0.658131993,2.29388069 0.658131993,4.22687732 C0.658131993,6.15987394 2.06700338,7.73316731 4,7.73316731 Z" id="Oval" fill="#92C841"></path>
                    <path d="M3.5,7.5 C5.709139,7.5 7.5,5.709139 7.5,3.5 C7.5,1.290861 5.709139,-0.5 3.5,-0.5 C1.290861,-0.5 -0.5,1.290861 -0.5,3.5 C-0.5,5.709139 1.290861,7.5 3.5,7.5 Z M3.5,6.5 C1.84314575,6.5 0.5,5.15685425 0.5,3.5 C0.5,1.84314575 1.84314575,0.5 3.5,0.5 C5.15685425,0.5 6.5,1.84314575 6.5,3.5 C6.5,5.15685425 5.15685425,6.5 3.5,6.5 Z" id="Oval" fill="#000000" fill-rule="nonzero"></path>
                </g>
            </g>
        </g>
    </g>
</svg>