<?xml version="1.0" encoding="UTF-8"?>
<svg width="30px" height="28px" viewBox="0 0 30 28" version="1.1" xmlns="http://www.w3.org/2000/svg" xmlns:xlink="http://www.w3.org/1999/xlink">
    <!-- Generator: Sketch 54.1 (76490) - https://sketchapp.com -->
    <title>Music</title>
    <desc>Created with Sketch.</desc>
    <g id="Univents" stroke="none" stroke-width="1" fill="none" fill-rule="evenodd">
        <g id="Home-Page-2.0" transform="translate(-121.000000, -473.000000)">
            <g id="Music" transform="translate(122.000000, 472.000000)">
                <path d="M11.9090111,3.27145051 L26.5955594,3.27992942 C27.7001287,3.28056712 28.5950421,4.17651443 28.5944044,5.28108374 C28.5943509,5.37382043 28.5878474,5.4664411 28.5749409,5.55827529 L27.9637615,9.90704263 L9.51740652,10.0510389 L9.91428037,5.11128075 C9.99780099,4.07172705 10.8661079,3.27084841 11.9090111,3.27145051 Z" id="Rectangle" fill="#CB4C47" transform="translate(19.055906, 6.661245) rotate(-8.000000) translate(-19.055906, -6.661245) "></path>
                <path d="M11.4211251,2.0981512 L24.8922473,2.02011003 C26.5490738,2.01051167 27.899978,3.34585387 27.9095764,5.00268032 C27.9104192,5.14816147 27.9006783,5.29351123 27.8804309,5.43757899 L27.3171231,9.44572241 L8,9.42302512 L8.4528258,4.80531661 C8.60280999,3.27584708 9.88434506,2.10705411 11.4211251,2.0981512 Z M26.44798,8.44470049 L26.8901628,5.29840589 C26.9036611,5.20236072 26.910155,5.10546088 26.9095931,5.00847344 C26.9031942,3.90392248 26.0025914,3.01369434 24.8980405,3.02009325 L11.4269183,3.09813442 C10.4023982,3.10406969 9.54804149,3.88326501 9.44805204,4.90291136 L9.10273255,8.42432012 L26.44798,8.44470049 Z" id="Rectangle" fill="#000000" fill-rule="nonzero" transform="translate(17.954813, 5.732891) rotate(-8.000000) translate(-17.954813, -5.732891) "></path>
                <g id="Group-3" transform="translate(0.166082, 10.378022)">
                    <polygon id="Path-22" fill="#000000" fill-rule="nonzero" points="8.47238425 0 8.47238425 13.3646823 9.47238425 13.3646823 9.47238425 0"></polygon>
                    <path d="M5.16783583,18.6219783 C7.6531172,18.6219783 9.80630217,16.6072597 9.80630217,14.1219783 C9.80630217,11.6366969 7.6531172,9.62197831 5.16783583,9.62197831 C2.68255446,9.62197831 0.833917915,11.6366969 0.833917915,14.1219783 C0.833917915,16.6072597 2.68255446,18.6219783 5.16783583,18.6219783 Z" id="Oval" fill="#CB4C47"></path>
                    <path d="M4.33391792,18.1219783 C7.11720377,18.1219783 9.47238425,15.8628314 9.47238425,13.1219783 C9.47238425,10.3811252 7.11720377,8.12197831 4.33391792,8.12197831 C1.59815204,8.12197831 -0.5,10.3328558 -0.5,13.1219783 C-0.5,15.9111009 1.59815204,18.1219783 4.33391792,18.1219783 Z M4.33391792,17.1219783 C2.16247922,17.1219783 0.5,15.3701807 0.5,13.1219783 C0.5,10.873776 2.16247922,9.12197831 4.33391792,9.12197831 C6.57401793,9.12197831 8.47238425,10.9429379 8.47238425,13.1219783 C8.47238425,15.3010187 6.57401793,17.1219783 4.33391792,17.1219783 Z" id="Oval" fill="#000000" fill-rule="nonzero"></path>
                </g>
                <g id="Group-3" transform="translate(18.000000, 8.000000)">
                    <polygon id="Path-22" fill="#000000" fill-rule="nonzero" points="8.47238425 0 8.47238425 13.3646823 9.47238425 13.3646823 9.47238425 0"></polygon>
                    <path d="M5.16783583,18.6219783 C7.6531172,18.6219783 9.80630217,16.6072597 9.80630217,14.1219783 C9.80630217,11.6366969 7.6531172,9.62197831 5.16783583,9.62197831 C2.68255446,9.62197831 0.833917915,11.6366969 0.833917915,14.1219783 C0.833917915,16.6072597 2.68255446,18.6219783 5.16783583,18.6219783 Z" id="Oval" fill="#CB4C47"></path>
                    <path d="M4.33391792,18.1219783 C7.11720377,18.1219783 9.47238425,15.8628314 9.47238425,13.1219783 C9.47238425,10.3811252 7.11720377,8.12197831 4.33391792,8.12197831 C1.59815204,8.12197831 -0.5,10.3328558 -0.5,13.1219783 C-0.5,15.9111009 1.59815204,18.1219783 4.33391792,18.1219783 Z M4.33391792,17.1219783 C2.16247922,17.1219783 0.5,15.3701807 0.5,13.1219783 C0.5,10.873776 2.16247922,9.12197831 4.33391792,9.12197831 C6.57401793,9.12197831 8.47238425,10.9429379 8.47238425,13.1219783 C8.47238425,15.3010187 6.57401793,17.1219783 4.33391792,17.1219783 Z" id="Oval" fill="#000000" fill-rule="nonzero"></path>
                </g>
            </g>
        </g>
    </g>
</svg>