<?xml version="1.0" encoding="UTF-8"?>
<svg width="35px" height="35px" viewBox="0 0 35 35" version="1.1" xmlns="http://www.w3.org/2000/svg" xmlns:xlink="http://www.w3.org/1999/xlink">
    <!-- Generator: Sketch 54.1 (76490) - https://sketchapp.com -->
    <title>Combined Shape</title>
    <desc>Created with Sketch.</desc>
    <g id="Univents" stroke="none" stroke-width="1" fill="none" fill-rule="evenodd">
        <g id="Explore-Events-Expanded-Copy-7" transform="translate(-334.000000, -618.000000)" fill="#D8D8D8">
            <path d="M351.5,653 C341.835017,653 334,645.164983 334,635.5 C334,625.835017 341.835017,618 351.5,618 C361.164983,618 369,625.835017 369,635.5 C369,645.164983 361.164983,653 351.5,653 Z M351.5,636 C355.365993,636 358.5,632.865993 358.5,629 C358.5,625.134007 355.365993,622 351.5,622 C347.634007,622 344.5,625.134007 344.5,629 C344.5,632.865993 347.634007,636 351.5,636 Z M339,643.545344 C341.954858,647.613405 346.04558,649.647435 351.272165,649.647435 C356.49875,649.647435 360.499406,647.613405 363.274131,643.545344 C361.615032,638.137297 359.863175,635.665983 358.018562,636.131402 C355.251641,636.829531 352.840438,641.578118 344.294237,636.131402 C344.000119,635.992535 342.898823,635.708561 341.985199,636.919677 C341.44492,637.63588 340.84589,637.927178 339.6982,640.84832 C339.600763,641.096323 339.368029,641.99533 339,643.545344 Z" id="Combined-Shape"></path>
        </g>
    </g>
</svg>