<?xml version="1.0" encoding="UTF-8"?>
<svg width="35px" height="35px" viewBox="0 0 35 35" version="1.1" xmlns="http://www.w3.org/2000/svg" xmlns:xlink="http://www.w3.org/1999/xlink">
    <!-- Generator: Sketch 54.1 (76490) - https://sketchapp.com -->
    <title>Profile</title>
    <desc>Created with Sketch.</desc>
    <g id="Univents" stroke="none" stroke-width="1" fill="none" fill-rule="evenodd">
        <g id="Explore-Events-Expanded-Copy-7" transform="translate(-334.000000, -618.000000)" fill="#D8D8D8">
            <g id="Profile" transform="translate(334.000000, 618.000000)">
                <path d="M17.5,35 C7.83501688,35 0,27.1649831 0,17.5 C0,7.83501688 7.83501688,0 17.5,0 C27.1649831,0 35,7.83501688 35,17.5 C35,27.1649831 27.1649831,35 17.5,35 Z M17.5,18 C21.3659932,18 24.5,14.8659932 24.5,11 C24.5,7.13400675 21.3659932,4 17.5,4 C13.6340068,4 10.5,7.13400675 10.5,11 C10.5,14.8659932 13.6340068,18 17.5,18 Z M5,25.545344 C7.9548584,29.613405 12.0455801,31.6474355 17.2721651,31.6474355 C22.4987502,31.6474355 26.4994056,29.613405 29.2741314,25.545344 C27.615032,20.137297 25.8631754,17.6659831 24.0185618,18.1314022 C21.2516414,18.8295309 18.840438,23.5781179 10.2942372,18.1314022 C10.0001186,17.9925347 8.89882274,17.708561 7.98519889,18.9196769 C7.44492006,19.6358801 6.84588999,19.9271777 5.69820028,22.8483204 C5.60076253,23.0963226 5.3680291,23.9953305 5,25.545344 Z" id="Combined-Shape"></path>
            </g>
        </g>
    </g>
</svg>