<?xml version="1.0" encoding="UTF-8"?>
<svg width="31px" height="30px" viewBox="0 0 31 30" version="1.1" xmlns="http://www.w3.org/2000/svg" xmlns:xlink="http://www.w3.org/1999/xlink">
    <!-- Generator: Sketch 54.1 (76490) - https://sketchapp.com -->
    <title>Promos</title>
    <desc>Created with Sketch.</desc>
    <g id="Univents" stroke="none" stroke-width="1" fill="none" fill-rule="evenodd">
        <g id="Home-Page-2.0" transform="translate(-120.000000, -414.000000)">
            <g id="Promos" transform="translate(120.000000, 414.000000)">
                <path d="M4.74858507,17.9251311 C3.75047164,19.4600588 3.75047164,20.8554477 4.74858507,22.1112976 C5.7466985,23.3671476 7.72058089,25.6869587 10.6702322,29.070731 C12.1615655,30.0936514 13.3596846,30.2115754 14.2645897,29.4245032 C15.1694948,28.6374309 19.9163705,24.606946 28.5052168,17.3330485 C30.1317112,11.9441115 30.9449584,8.83184719 30.9449584,7.99625552 C30.9449584,7.16066385 30.4525595,6.31887046 29.4677615,5.47087533 C23.5947946,4.84304156 20.3474603,4.84304156 19.7257586,5.47087533 C19.1040569,6.09870911 14.1116658,10.2501277 4.74858507,17.9251311 Z" id="Path-16" fill="#DDC85E"></path>
                <path d="M3.32941448,16.6525582 C2.21890521,18.3603315 2.21890521,19.9902236 3.35715427,21.4223956 C4.36145125,22.6860258 6.3388226,25.0099374 9.29332911,28.3992794 L9.38741319,28.4830578 C11.0470403,29.6214126 12.4873807,29.7631771 13.5927262,28.801765 C14.4950065,28.0169757 19.2433433,23.9852502 27.8283539,16.7146011 L27.9411715,16.6190559 L27.9838894,16.4775219 C29.6343908,11.0090444 30.4449584,7.90703471 30.4449584,6.99625552 C30.4449584,5.99364586 29.8791788,5.02640267 28.7940175,4.09198611 L28.6759001,3.99027691 L28.5209098,3.9737081 C22.3859977,3.31787178 19.1638386,3.31787178 18.3704744,4.11906124 C17.7686323,4.72683955 12.7504098,8.89973818 3.43161252,16.5384421 L3.32941448,16.6525582 Z M19.0810428,4.82268942 C19.52685,4.37248503 22.7422948,4.36825152 28.2569439,4.95127999 C29.0624433,5.67507005 29.4449584,6.35746699 29.4449584,6.99625552 C29.4449584,7.74987968 28.6435169,10.8236838 27.0692214,16.0470762 C18.5478383,23.2639296 13.8400022,27.2613487 12.9364533,28.0472413 C12.2412059,28.6519566 11.3010621,28.5682312 10.004796,27.6936081 C7.0834452,24.341773 5.1271843,22.0422784 4.14001587,20.8001997 C3.29550661,19.7376181 3.28224951,18.5962133 4.12669838,17.2617017 C13.4944427,9.58262094 18.4408728,5.46917363 19.0810428,4.82268942 Z" id="Path-16" fill="#2B2B2B" fill-rule="nonzero"></path>
                <path d="M2.74858507,14.9251311 C1.75047164,16.4600588 1.75047164,17.8554477 2.74858507,19.1112976 C3.7466985,20.3671476 5.72058089,22.6869587 8.67023225,26.070731 C10.1615655,27.0936514 11.3596846,27.2115754 12.2645897,26.4245032 C13.1694948,25.6374309 17.9163705,21.606946 26.5052168,14.3330485 C28.1317112,8.94411151 28.9449584,5.83184719 28.9449584,4.99625552 C28.9449584,4.16066385 28.4525595,3.31887046 27.4677615,2.47087533 C21.5947946,1.84304156 18.3474603,1.84304156 17.7257586,2.47087533 C17.1040569,3.09870911 12.1116658,7.2501277 2.74858507,14.9251311 Z" id="Path-16" fill="#8CC63F"></path>
                <path d="M1.32941448,13.6525582 C0.218905208,15.3603315 0.218905208,16.9902236 1.35715427,18.4223956 C2.36145125,19.6860258 4.3388226,22.0099374 7.29332911,25.3992794 L7.38741319,25.4830578 C9.04704026,26.6214126 10.4873807,26.7631771 11.5927262,25.801765 C12.4950065,25.0169757 17.2433433,20.9852502 25.8283539,13.7146011 L25.9411715,13.6190559 L25.9838894,13.4775219 C27.6343908,8.00904438 28.4449584,4.90703471 28.4449584,3.99625552 C28.4449584,2.99364586 27.8791788,2.02640267 26.7940175,1.09198611 L26.6759001,0.990276913 L26.5209098,0.973708101 C20.3859977,0.317871776 17.1638386,0.317871776 16.3704744,1.11906124 C15.7686323,1.72683955 10.7504098,5.89973818 1.43161252,13.5384421 L1.32941448,13.6525582 Z M17.0810428,1.82268942 C17.52685,1.37248503 20.7422948,1.36825152 26.2569439,1.95127999 C27.0624433,2.67507005 27.4449584,3.35746699 27.4449584,3.99625552 C27.4449584,4.74987968 26.6435169,7.82368377 25.0692214,13.0470762 C16.5478383,20.2639296 11.8400022,24.2613487 10.9364533,25.0472413 C10.2412059,25.6519566 9.30106208,25.5682312 8.00479602,24.6936081 C5.0834452,21.341773 3.1271843,19.0422784 2.14001587,17.8001997 C1.29550661,16.7376181 1.28224951,15.5962133 2.12669838,14.2617017 C11.4944427,6.58262094 16.4408728,2.46917363 17.0810428,1.82268942 Z" id="Path-16" fill="#2B2B2B" fill-rule="nonzero"></path>
                <path d="M22.5,7.5 C23.6045695,7.5 24.5,6.6045695 24.5,5.5 C24.5,4.3954305 23.6045695,3.5 22.5,3.5 C21.3954305,3.5 20.5,4.3954305 20.5,5.5 C20.5,6.6045695 21.3954305,7.5 22.5,7.5 Z M22.5,6.5 C21.9477153,6.5 21.5,6.05228475 21.5,5.5 C21.5,4.94771525 21.9477153,4.5 22.5,4.5 C23.0522847,4.5 23.5,4.94771525 23.5,5.5 C23.5,6.05228475 23.0522847,6.5 22.5,6.5 Z" id="Oval" fill="#101010" fill-rule="nonzero"></path>
                <circle id="Oval" fill="#FFFFFF" cx="22.5" cy="5.5" r="1.5"></circle>
            </g>
        </g>
    </g>
</svg>