<?xml version="1.0" encoding="UTF-8"?>
<svg width="33px" height="31px" viewBox="0 0 33 31" version="1.1" xmlns="http://www.w3.org/2000/svg" xmlns:xlink="http://www.w3.org/1999/xlink">
    <!-- Generator: Sketch 54.1 (76490) - https://sketchapp.com -->
    <title>Tech</title>
    <desc>Created with Sketch.</desc>
    <g id="Univents" stroke="none" stroke-width="1" fill="none" fill-rule="evenodd">
        <g id="Home-Page-2.0" transform="translate(-296.000000, -416.000000)">
            <g id="Tech" transform="translate(296.000000, 416.000000)">
                <rect id="Rectangle" fill="#D7F5FC" x="1" y="1" width="32" height="23" rx="1"></rect>
                <path d="M1,0 L32,0 C32.5522847,-1.01453063e-16 33,0.44771525 33,1 L33,24 C33,24.5522847 32.5522847,25 32,25 L1,25 C0.44771525,25 6.76353751e-17,24.5522847 0,24 L0,1 C-6.76353751e-17,0.44771525 0.44771525,1.01453063e-16 1,0 Z M1,1 L1,24 L32,24 L32,1 L1,1 Z" id="Rectangle" fill="#000000" fill-rule="nonzero"></path>
                <circle id="Oval" fill="#000000" cx="16.5" cy="21.5" r="1.5"></circle>
                <path d="M12.4438833,24.5 L11.0099179,28.4930236 C10.7299226,29.2726993 11.1349936,30.1317323 11.9146692,30.4117277 C12.0773146,30.4701365 12.2488303,30.5 12.4216456,30.5 L20.5756484,30.5 C21.4040756,30.5 22.0756484,29.8284271 22.0756484,29 C22.0756484,28.815955 22.0417783,28.6334814 21.9757302,28.461696 L20.4525358,24.5 L12.4438833,24.5 Z M19.7656501,25.5 L21.0423423,28.8205653 C21.0643584,28.8778271 21.0756484,28.9386517 21.0756484,29 C21.0756484,29.2761424 20.8517908,29.5 20.5756484,29.5 L12.4216456,29.5 C12.3640405,29.5 12.3068686,29.4900455 12.2526535,29.4705759 C11.9927616,29.3772441 11.8577379,29.0908998 11.9510697,28.8310079 L13.1472935,25.5 L19.7656501,25.5 Z" id="Path-2" fill="#000000" fill-rule="nonzero"></path>
                <polygon id="Path-20" fill="#000000" fill-rule="nonzero" points="0 19 32 19 32 18 0 18"></polygon>
            </g>
        </g>
    </g>
</svg>